<?xml version="1.0" encoding="UTF-8" standalone="no"?>
<!-- Created with Inkscape (http://www.inkscape.org/) -->

<svg
   width="381mm"
   height="59.266663mm"
   viewBox="0 0 381 59.266663"
   version="1.1"
   id="svg7370"
   xml:space="preserve"
   xmlns:inkscape="http://www.inkscape.org/namespaces/inkscape"
   xmlns:sodipodi="http://sodipodi.sourceforge.net/DTD/sodipodi-0.dtd"
   xmlns="http://www.w3.org/2000/svg"
   xmlns:svg="http://www.w3.org/2000/svg"><sodipodi:namedview
     id="namedview7372"
     pagecolor="#505050"
     bordercolor="#eeeeee"
     borderopacity="1"
     inkscape:showpageshadow="0"
     inkscape:pageopacity="0"
     inkscape:pagecheckerboard="0"
     inkscape:deskcolor="#505050"
     inkscape:document-units="mm"
     showgrid="false" /><defs
     id="defs7367" /><g
     inkscape:label="Layer 1"
     inkscape:groupmode="layer"
     id="layer1"
     transform="translate(-3.5943397,-242.91384)"><path
       fill="#252525"
       fill-opacity="1"
       d="M 3.5943396,242.91384 H 16.29434 c 12.7,0 38.1,0 63.5,9.86895 25.4,9.9748 50.8,29.55396 76.2,28.23105 25.4,-1.32292 50.8,-24.07709 76.2,-29.63334 25.4,-5.55625 50.8,5.55625 76.2,8.46667 25.4,2.91042 50.8,-2.91042 63.5,-5.63563 l 12.7,-2.83104 v 50.8 h -12.7 c -12.7,0 -38.1,0 -63.5,0 -25.4,0 -50.8,0 -76.2,0 -25.4,0 -50.8,0 -76.2,0 -25.4,0 -50.8,0 -76.2,0 -25.4,0 -50.8,0 -63.5,0 H 3.5943396 Z"
       id="path7491"
       style="fill:#fafafa;fill-opacity:1;stroke-width:0.264583" /></g></svg>
